<?xml version="1.0" encoding="UTF-8" standalone="no"?>
<!-- Created with Inkscape (http://www.inkscape.org/) -->

<svg
   xmlns:dc="http://purl.org/dc/elements/1.1/"
   xmlns:cc="http://creativecommons.org/ns#"
   xmlns:rdf="http://www.w3.org/1999/02/22-rdf-syntax-ns#"
   xmlns:svg="http://www.w3.org/2000/svg"
   xmlns="http://www.w3.org/2000/svg"
   xmlns:sodipodi="http://sodipodi.sourceforge.net/DTD/sodipodi-0.dtd"
   xmlns:inkscape="http://www.inkscape.org/namespaces/inkscape"
   width="18.9151"
   height="22.672199"
   id="svg2"
   version="1.1"
   inkscape:version="0.48.4 r9939"
   sodipodi:docname="track.svg">
  <defs
     id="defs4" />
  <sodipodi:namedview
     id="base"
     pagecolor="#ffffff"
     bordercolor="#666666"
     borderopacity="1.0"
     inkscape:pageopacity="0.0"
     inkscape:pageshadow="2"
     inkscape:zoom="1.979899"
     inkscape:cx="9.4575494"
     inkscape:cy="11.336099"
     inkscape:document-units="px"
     inkscape:current-layer="layer1"
     showgrid="false"
     fit-margin-top="0"
     fit-margin-left="0"
     fit-margin-right="0"
     fit-margin-bottom="0"
     inkscape:window-width="463"
     inkscape:window-height="423"
     inkscape:window-x="50"
     inkscape:window-y="50"
     inkscape:window-maximized="0" />
  <metadata
     id="metadata7">
    <rdf:RDF>
      <cc:Work
         rdf:about="">
        <dc:format>image/svg+xml</dc:format>
        <dc:type
           rdf:resource="http://purl.org/dc/dcmitype/StillImage" />
        <dc:title></dc:title>
      </cc:Work>
    </rdf:RDF>
  </metadata>
  <g
     inkscape:label="Layer 1"
     inkscape:groupmode="layer"
     id="layer1"
     transform="translate(-390.31356,-539.88853)">
    <path
       style="fill:#9db1b4;fill-opacity:1;stroke:none"
       d="m 399.91786,539.88853 c -1.3886,0 -2.5126,1.1357 -2.5126,2.5246 0,0.9836 0.5625,1.8293 1.3855,2.2423 l 0,4.5086 -6.9978,3.0294 0,5.5652 c -0.8719,0.3949 -1.4794,1.2703 -1.4794,2.2896 0,1.3887 1.124,2.5125 2.5126,2.5125 1.3887,0 2.5244,-1.1238 2.5244,-2.5125 0,-1.0231 -0.6142,-1.897 -1.4912,-2.2896 l 0,-3.7456 6.0116,-2.8179 5.8236,2.724 0,3.7809 c -0.8845,0.3896 -1.5029,1.2725 -1.5029,2.3013 0,1.3886 1.124,2.5128 2.5127,2.5128 1.3886,0 2.5243,-1.1242 2.5243,-2.5128 0,-0.9972 -0.591,-1.8478 -1.4324,-2.2544 l 0,-5.5651 -6.8921,-2.9941 0,-4.4617 c 0.8973,-0.384 1.5264,-1.2752 1.5264,-2.3129 0,-1.3889 -1.124,-2.5246 -2.5127,-2.5246 z"
       id="path16917-9-0"
       inkscape:connector-curvature="0" />
  </g>
</svg>
