<?xml version="1.0" encoding="UTF-8" standalone="no"?>
<!-- Created with Inkscape (http://www.inkscape.org/) -->

<svg
   xmlns:dc="http://purl.org/dc/elements/1.1/"
   xmlns:cc="http://creativecommons.org/ns#"
   xmlns:rdf="http://www.w3.org/1999/02/22-rdf-syntax-ns#"
   xmlns:svg="http://www.w3.org/2000/svg"
   xmlns="http://www.w3.org/2000/svg"
   xmlns:sodipodi="http://sodipodi.sourceforge.net/DTD/sodipodi-0.dtd"
   xmlns:inkscape="http://www.inkscape.org/namespaces/inkscape"
   width="66.832397"
   height="66.832397"
   id="svg2"
   version="1.1"
   inkscape:version="0.48.4 r9939"
   sodipodi:docname="New document 1">
  <defs
     id="defs4" />
  <sodipodi:namedview
     id="base"
     pagecolor="#ffffff"
     bordercolor="#666666"
     borderopacity="1.0"
     inkscape:pageopacity="0.0"
     inkscape:pageshadow="2"
     inkscape:zoom="0.35"
     inkscape:cx="33.4162"
     inkscape:cy="33.416205"
     inkscape:document-units="px"
     inkscape:current-layer="layer1"
     showgrid="false"
     fit-margin-top="0"
     fit-margin-left="0"
     fit-margin-right="0"
     fit-margin-bottom="0"
     inkscape:window-width="463"
     inkscape:window-height="423"
     inkscape:window-x="25"
     inkscape:window-y="25"
     inkscape:window-maximized="0" />
  <metadata
     id="metadata7">
    <rdf:RDF>
      <cc:Work
         rdf:about="">
        <dc:format>image/svg+xml</dc:format>
        <dc:type
           rdf:resource="http://purl.org/dc/dcmitype/StillImage" />
        <dc:title></dc:title>
      </cc:Work>
    </rdf:RDF>
  </metadata>
  <g
     inkscape:label="Layer 1"
     inkscape:groupmode="layer"
     id="layer1"
     transform="translate(-341.5838,-498.94599)">
    <g
       id="g2996"
       transform="matrix(3.1646958,0,0,3.1646958,341.5838,498.94599)">
      <path
         id="path2998"
         d="M 3.0118111,0 C 1.3464567,0 0,1.3464567 0,3.0472442 L 0,18.1063 c 0,1.665354 1.3464567,3.011811 3.0118111,3.011811 l 15.0590559,0 c 1.700787,0 3.047244,-1.346457 3.047244,-3.011811 l 0,-11.9055125 -2.834646,2.8346458 0,8.2913387 c 0,0.531496 -0.425197,0.956693 -0.956693,0.956693 l -13.5354333,0 c -0.5314961,0 -0.956693,-0.425197 -0.956693,-0.956693 l 0,-13.5354333 c 0,-0.5314961 0.4251969,-0.956693 0.956693,-0.956693 l 7.7598423,0 L 14.350394,0 z M 17.610237,0.03543307 c -0.389764,0 -0.779528,0.10629922 -1.062993,0.42519686 L 15.059055,1.9133859 c 1.098426,-0.070866 4.074804,2.515748 3.933071,3.8267717 L 20.551182,4.1456694 C 21.933071,2.7283465 19.488189,-0.03543307 17.610237,0.03543307 z M 13.996063,3.0118111 6.3070867,10.700788 c 1.6299213,0.673228 3.2244096,2.232283 3.7913383,3.897637 L 18,6.7322836 C 18.814961,5.917323 14.669292,2.3740158 13.996063,3.0118111 z m -8.7165353,8.7165359 -0.3543308,0.389763 0,3.897638 3.7559056,0 0.3897638,-0.389763 C 8.3622049,13.889764 6.8031497,12.330709 5.2795277,11.728347 z"
         style="fill:#c1333f;fill-opacity:1;fill-rule:nonzero;stroke:none"
         inkscape:connector-curvature="0" />
    </g>
  </g>
</svg>
