<?xml version="1.0" encoding="UTF-8" standalone="no"?>
<!-- Created with Inkscape (http://www.inkscape.org/) -->

<svg
   xmlns:dc="http://purl.org/dc/elements/1.1/"
   xmlns:cc="http://creativecommons.org/ns#"
   xmlns:rdf="http://www.w3.org/1999/02/22-rdf-syntax-ns#"
   xmlns:svg="http://www.w3.org/2000/svg"
   xmlns="http://www.w3.org/2000/svg"
   xmlns:sodipodi="http://sodipodi.sourceforge.net/DTD/sodipodi-0.dtd"
   xmlns:inkscape="http://www.inkscape.org/namespaces/inkscape"
   width="491.07541"
   height="163.6032"
   id="svg2"
   version="1.1"
   inkscape:version="0.48.4 r9939"
   sodipodi:docname="dropdownArrow.svg">
  <defs
     id="defs4" />
  <sodipodi:namedview
     id="base"
     pagecolor="#ffffff"
     bordercolor="#666666"
     borderopacity="1.0"
     inkscape:pageopacity="0.0"
     inkscape:pageshadow="2"
     inkscape:zoom="0.49497475"
     inkscape:cx="412.9881"
     inkscape:cy="-4.9214063"
     inkscape:document-units="px"
     inkscape:current-layer="layer1"
     showgrid="false"
     fit-margin-top="0"
     fit-margin-left="0"
     fit-margin-right="0"
     fit-margin-bottom="0"
     inkscape:window-width="708"
     inkscape:window-height="423"
     inkscape:window-x="125"
     inkscape:window-y="125"
     inkscape:window-maximized="0" />
  <metadata
     id="metadata7">
    <rdf:RDF>
      <cc:Work
         rdf:about="">
        <dc:format>image/svg+xml</dc:format>
        <dc:type
           rdf:resource="http://purl.org/dc/dcmitype/StillImage" />
        <dc:title></dc:title>
      </cc:Work>
    </rdf:RDF>
  </metadata>
  <g
     inkscape:label="Layer 1"
     inkscape:groupmode="layer"
     id="layer1"
     transform="translate(-2078.7105,2935.2562)">
    <g
       style="font-size:117.60089874px;font-style:normal;font-weight:normal;line-height:125%;letter-spacing:0px;word-spacing:0px;fill:#000000;fill-opacity:1;stroke:none;font-family:Sans"
       id="text3219-1-9-3-9-3-59">
      <path
         d="m 2133.3657,-2917.3799 c -4.0364,0 -7.3477,0.8231 -9.9341,2.4691 -2.5864,1.6462 -3.8796,4.1351 -3.8796,7.4667 0,3.3318 1.2932,5.8799 3.8796,7.6444 2.5864,1.7646 8.0935,3.6661 16.5215,5.7045 8.4278,2.0385 14.7784,4.9001 19.0516,8.5846 4.2731,3.6847 6.4097,9.1141 6.4098,16.2882 -10e-5,7.1743 -2.7049,12.9954 -8.1145,17.4636 -5.4097,4.4682 -12.505,6.7023 -21.2857,6.7023 -12.8579,0 -24.2646,-4.4299 -34.2201,-13.2897 l 8.703,-10.4652 c 8.3095,7.2137 16.9336,10.8205 25.8724,10.8205 4.4669,0 8.0139,-0.9606 10.641,-2.8819 2.6271,-1.9212 3.9406,-4.4693 3.9406,-7.6443 0,-3.175 -1.2352,-5.6447 -3.7055,-7.4093 -2.4704,-1.7645 -6.7238,-3.3717 -12.7603,-4.8217 -6.0366,-1.4499 -10.6226,-2.7825 -13.758,-3.998 -3.1356,-1.2154 -5.9187,-2.8029 -8.3496,-4.7625 -4.8618,-3.6845 -7.2926,-9.3293 -7.2926,-16.9342 0,-7.6048 2.764,-13.4654 8.2921,-17.582 5.5281,-4.1164 12.3679,-6.1746 20.5195,-6.1747 5.2541,1e-4 10.4682,0.8626 15.6422,2.5876 5.1739,1.7252 9.6427,4.156 13.4063,7.2927 l -7.4075,10.4652 c -2.4309,-2.1964 -5.7243,-3.9998 -9.8802,-5.4103 -4.156,-1.4104 -8.2533,-2.1156 -12.2919,-2.1156 z"
         style="font-variant:normal;font-stretch:normal;letter-spacing:-6.68969154px;fill:#000000;fill-opacity:1;font-family:Montserrat;-inkscape-font-specification:Montserrat"
         id="path3006"
         inkscape:connector-curvature="0" />
      <path
         d="m 2207.6307,-2909.5023 c 8.3884,0 15.562,2.9011 21.5208,8.7031 5.9587,5.802 8.938,13.5247 8.9381,23.1681 -10e-5,9.6433 -2.9597,17.4833 -8.8789,23.5198 -5.9194,6.0365 -12.8184,9.0548 -20.6972,9.0548 -7.8788,0 -14.9549,-3.449 -21.2283,-10.3468 l 0,32.2211 -13.1712,0 0,-85.3798 13.1712,0 0,10.9389 c 5.1752,-7.9194 11.957,-11.8792 20.3455,-11.8792 z m -20.5788,32.3431 c 0,5.9576 1.8028,10.8373 5.4085,14.6391 3.6056,3.8019 7.996,5.7028 13.1712,5.7028 5.1752,0 9.6834,-1.8812 13.5248,-5.6436 3.8413,-3.7623 5.7619,-8.6426 5.762,-14.6409 -1e-4,-5.9982 -1.8819,-10.9766 -5.6454,-14.9352 -3.7636,-3.9585 -8.2718,-5.9377 -13.5247,-5.9378 -5.253,10e-5 -9.6823,1.9793 -13.2879,5.9378 -3.6057,3.9586 -5.4085,8.9179 -5.4085,14.8778 z"
         style="font-variant:normal;font-stretch:normal;letter-spacing:-6.68969154px;fill:#000000;fill-opacity:1;font-family:Montserrat;-inkscape-font-specification:Montserrat"
         id="path3008"
         inkscape:connector-curvature="0" />
      <path
         d="m 2261.0765,-2862.5201 c 3.7252,3.8019 8.4494,5.7028 14.1725,5.7028 5.7231,0 10.4467,-1.9009 14.1708,-5.7028 3.724,-3.8018 5.586,-8.721 5.5861,-14.7575 -1e-4,-6.0365 -1.8621,-10.9563 -5.5861,-14.7594 -3.7241,-3.8029 -8.4477,-5.7045 -14.1708,-5.7045 -5.7231,0 -10.4467,1.9016 -14.1707,5.7045 -3.7241,3.8031 -5.5862,8.7229 -5.5861,14.7594 -1e-4,6.0365 1.8614,10.9557 5.5843,14.7575 z m 37.6941,8.1145 c -6.271,6.2327 -14.1109,9.3491 -23.5198,9.3491 -9.4089,0 -17.2494,-3.1164 -23.5216,-9.3491 -6.2722,-6.2327 -9.4083,-13.8573 -9.4083,-22.8738 0,-9.0165 3.1361,-16.6411 9.4083,-22.8738 6.2722,-6.2327 14.1127,-9.3491 23.5216,-9.3491 9.4089,0 17.2488,3.1164 23.5198,9.3491 6.271,6.2327 9.4065,13.8573 9.4065,22.8738 0,9.0165 -3.1355,16.6411 -9.4065,22.8738 z"
         style="font-variant:normal;font-stretch:normal;letter-spacing:-6.68969154px;fill:#000000;fill-opacity:1;font-family:Montserrat;-inkscape-font-specification:Montserrat"
         id="path3010"
         inkscape:connector-curvature="0" />
      <path
         d="m 2332.6929,-2897.9748 0,31.751 c 0,2.9788 0.7841,5.3504 2.3525,7.1149 1.5683,1.7646 3.7635,2.6469 6.5856,2.6469 2.8221,0 5.5275,-1.3722 8.1163,-4.1165 l 5.4085,9.2881 c -4.625,4.1559 -9.7403,6.2339 -15.3461,6.2339 -5.6059,0 -10.3887,-1.9404 -14.3484,-5.8212 -3.9598,-3.8808 -5.9397,-9.1134 -5.9397,-15.6978 l 0,-31.3993 -7.8776,0 0,-10.5872 7.8776,0 0,-19.6385 13.1713,0 0,19.6385 16.4658,0 0,10.5872 z"
         style="font-variant:normal;font-stretch:normal;letter-spacing:-6.68969154px;fill:#000000;fill-opacity:1;font-family:Montserrat;-inkscape-font-specification:Montserrat"
         id="path3012"
         inkscape:connector-curvature="0" />
      <path
         d="m 2372.099,-2845.9968 -13.1713,0 0,-62.5652 13.1713,0 z m -12.3494,-75.0295 c -1.6461,-1.646 -2.4692,-3.6061 -2.4692,-5.8804 0,-2.274 0.8237,-4.2342 2.471,-5.8804 1.6473,-1.646 3.6074,-2.469 5.8804,-2.4691 2.2729,10e-5 4.233,0.8231 5.8804,2.4691 1.6473,1.6462 2.4709,3.6064 2.4709,5.8804 0,2.2743 -0.8236,4.2344 -2.4709,5.8804 -1.6474,1.6462 -3.6075,2.4693 -5.8804,2.4692 -2.273,1e-4 -4.2337,-0.823 -5.8822,-2.4692 z"
         style="font-variant:normal;font-stretch:normal;letter-spacing:-6.68969154px;fill:#000000;fill-opacity:1;font-family:Montserrat;-inkscape-font-specification:Montserrat"
         id="path3014"
         inkscape:connector-curvature="0" />
      <path
         d="m 2400.6235,-2913.7336 0,5.1716 16.4659,0 0,10.5872 -16.4659,0 0,51.978 -13.1712,0 0,-51.978 -7.8777,0 0,-10.5872 7.8777,0 0,-4.8199 c 0,-6.5868 1.9798,-11.8206 5.9396,-15.7014 3.9597,-3.8807 8.7425,-5.8211 14.3484,-5.8212 5.6058,1e-4 10.7212,2.078 15.3461,6.2339 l -5.4085,9.2916 c -2.5888,-2.7442 -5.2942,-4.1163 -8.1163,-4.1164 -2.8221,10e-5 -5.0173,0.8817 -6.5856,2.645 -1.5683,1.7634 -2.3525,4.1357 -2.3525,7.1168 z"
         style="font-variant:normal;font-stretch:normal;letter-spacing:-6.68969154px;fill:#000000;fill-opacity:1;font-family:Montserrat;-inkscape-font-specification:Montserrat"
         id="path3016"
         inkscape:connector-curvature="0" />
      <path
         d="m 2481.3952,-2871.5175 -49.0387,0 c 0.3134,4.5484 2.3908,8.2138 6.2321,10.9964 3.8413,2.7826 8.2323,4.1739 13.1731,4.1739 7.8405,0 13.7992,-2.4691 17.8763,-7.4075 l 7.5259,8.2329 c -6.7424,6.9769 -15.5232,10.4653 -26.3425,10.4653 -8.7809,0 -16.2488,-2.9202 -22.4037,-8.7605 -6.1549,-5.8403 -9.2324,-13.6803 -9.2324,-23.5198 0,-9.8396 3.1361,-17.6604 9.4083,-23.4624 6.2721,-5.802 13.6617,-8.7031 22.1686,-8.7031 8.5068,0 15.739,2.5679 21.6966,7.7035 5.9575,5.1358 8.9363,12.2113 8.9364,21.2266 z m -49.0387,-10.3467 35.8674,0 c 0,-5.2541 -1.6461,-9.2922 -4.9383,-12.1144 -3.2922,-2.822 -7.3495,-4.233 -12.1717,-4.2331 -4.8223,10e-5 -9.1541,1.4703 -12.9954,4.4108 -3.8413,2.9405 -5.762,6.9194 -5.762,11.9367 z"
         style="font-variant:normal;font-stretch:normal;letter-spacing:-6.68969154px;fill:#000000;fill-opacity:1;font-family:Montserrat;-inkscape-font-specification:Montserrat"
         id="path3018"
         inkscape:connector-curvature="0" />
      <path
         d="m 2502.2466,-2879.8652 0,33.8684 -13.1712,0 0,-87.142 13.1712,0 0,35.9859 c 1.883,-3.8425 4.7254,-6.8613 8.5273,-9.0566 3.8018,-2.1952 7.8979,-3.2928 12.2883,-3.2928 7.0558,0 12.7597,2.1564 17.1119,6.469 4.3521,4.3127 6.5281,10.546 6.5282,18.6999 l 0,38.3366 -13.1713,0 0,-34.3386 c 0,-11.5251 -4.7828,-17.2876 -14.3484,-17.2877 -4.5483,10e-5 -8.5081,1.5092 -11.8792,4.5274 -3.3712,3.0183 -5.0568,7.4285 -5.0568,13.2305 z"
         style="font-variant:normal;font-stretch:normal;letter-spacing:-6.68969154px;fill:#000000;fill-opacity:1;font-family:Montserrat;-inkscape-font-specification:Montserrat"
         id="path3020"
         inkscape:connector-curvature="0" />
    </g>
    <g
       style="font-size:38.29418182px;font-style:normal;font-weight:normal;line-height:125%;letter-spacing:0px;word-spacing:0px;fill:#727272;fill-opacity:1;stroke:none;font-family:Sans"
       id="text4932">
      <path
         d="m 2090.314,-2779.4654 5.9741,-19.2617 4.0587,0 5.9741,19.2617 6.7396,-19.2617 4.8639,0 -9.3445,26.7679 -4.4806,0 -5.6282,-18.3431 -0.3073,0 -5.6294,18.3431 -4.4794,0 -9.3445,-26.7679 4.8639,0 z"
         style="font-variant:normal;font-stretch:normal;fill:#727272;font-family:Montserrat;-inkscape-font-specification:Montserrat"
         id="path3023"
         inkscape:connector-curvature="0" />
      <path
         d="m 2125.8058,-2782.9877 0,11.0285 -4.289,0 0,-28.3759 4.289,0 0,11.718 c 0.6131,-1.2512 1.5387,-2.2342 2.7767,-2.9491 1.2379,-0.7148 2.5717,-1.0722 4.0014,-1.0722 2.2975,0 4.1549,0.7022 5.5721,2.1065 1.4172,1.4043 2.1257,3.4341 2.1258,6.0892 l 0,12.4835 -4.289,0 0,-11.1816 c 0,-3.7529 -1.5574,-5.6294 -4.6722,-5.6294 -1.4811,0 -2.7705,0.4914 -3.8682,1.4742 -1.0978,0.9829 -1.6467,2.419 -1.6466,4.3083 z"
         style="font-variant:normal;font-stretch:normal;fill:#727272;font-family:Montserrat;-inkscape-font-specification:Montserrat"
         id="path3025"
         inkscape:connector-curvature="0" />
      <path
         d="m 2165.2288,-2780.2695 -15.9683,0 c 0.102,1.4811 0.7785,2.6747 2.0293,3.5808 1.2509,0.9061 2.6807,1.3591 4.2895,1.3591 2.5531,0 4.4935,-0.804 5.8211,-2.4121 l 2.4506,2.6809 c -2.1955,2.2718 -5.0548,3.4078 -8.5778,3.4078 -2.8593,0 -5.2911,-0.9509 -7.2953,-2.8527 -2.0042,-1.9018 -3.0064,-4.4547 -3.0064,-7.6587 0,-3.2041 1.0212,-5.7507 3.0636,-7.64 2.0424,-1.8893 4.4487,-2.834 7.2188,-2.834 2.77,0 5.1251,0.8362 7.065,2.5085 1.94,1.6723 2.9099,3.9763 2.9099,6.9119 z m -15.9683,-3.3692 11.6794,0 c 0,-1.7109 -0.536,-3.0258 -1.608,-3.9447 -1.0721,-0.919 -2.3932,-1.3784 -3.9635,-1.3785 -1.5703,10e-5 -2.9808,0.4788 -4.2317,1.4363 -1.2508,0.9575 -1.8762,2.2532 -1.8762,3.8869 z"
         style="font-variant:normal;font-stretch:normal;fill:#727272;font-family:Montserrat;-inkscape-font-specification:Montserrat"
         id="path3027"
         inkscape:connector-curvature="0" />
      <path
         d="m 2180.5919,-2788.3109 c -2.1184,0 -3.7138,0.6893 -4.7862,2.0679 -1.0725,1.3786 -1.6087,3.2296 -1.6087,5.5528 l 0,8.731 -4.2889,0 0,-20.373 4.2889,0 0,4.0984 c 0.6895,-1.2769 1.6278,-2.3238 2.8147,-3.1407 1.187,-0.8169 2.4442,-1.2382 3.7718,-1.2639 l 0.039,4.3275 c -0.076,0 -0.1531,0 -0.2302,0 z"
         style="font-variant:normal;font-stretch:normal;fill:#727272;font-family:Montserrat;-inkscape-font-specification:Montserrat"
         id="path3029"
         inkscape:connector-curvature="0" />
      <path
         d="m 2204.0466,-2780.2695 -15.9684,0 c 0.1021,1.4811 0.7785,2.6747 2.0294,3.5808 1.2508,0.9061 2.6806,1.3591 4.2895,1.3591 2.5531,0 4.4934,-0.804 5.821,-2.4121 l 2.4506,2.6809 c -2.1955,2.2718 -5.0547,3.4078 -8.5778,3.4078 -2.8593,0 -5.2911,-0.9509 -7.2953,-2.8527 -2.0042,-1.9018 -3.0063,-4.4547 -3.0063,-7.6587 0,-3.2041 1.0212,-5.7507 3.0636,-7.64 2.0424,-1.8893 4.4486,-2.834 7.2187,-2.834 2.7701,0 5.1251,0.8362 7.0651,2.5085 1.9399,1.6723 2.9099,3.9763 2.9099,6.9119 z m -15.9684,-3.3692 11.6795,0 c -1e-4,-1.7109 -0.5361,-3.0258 -1.6081,-3.9447 -1.0721,-0.919 -2.3932,-1.3784 -3.9635,-1.3785 -1.5702,10e-5 -2.9808,0.4788 -4.2316,1.4363 -1.2509,0.9575 -1.8763,2.2532 -1.8763,3.8869 z"
         style="font-variant:normal;font-stretch:normal;fill:#727272;font-family:Montserrat;-inkscape-font-specification:Montserrat"
         id="path3031"
         inkscape:connector-curvature="0" />
      <path
         d="m 2227.5071,-2771.653 c -2.5788,0 -4.8255,-0.9702 -6.7401,-2.9106 -1.9147,-1.9403 -2.872,-4.4932 -2.872,-7.6587 0,-3.1654 0.9829,-5.6928 2.9485,-7.5821 1.9657,-1.8893 4.308,-2.834 7.0271,-2.834 2.719,0 4.9083,1.1488 6.5678,3.4463 l 0,-11.1816 4.2889,0 0,28.4145 -4.2889,0 0,-3.063 c -1.5832,2.2461 -3.8936,3.3692 -6.9313,3.3692 z m -5.3231,-10.3963 c 0,1.9524 0.6254,3.5414 1.8762,4.7669 1.2509,1.2255 2.7189,1.8383 4.4041,1.8383 1.6851,0 3.1148,-0.619 4.2889,-1.857 1.1741,-1.238 1.7611,-2.8271 1.7611,-4.7675 0,-1.9403 -0.587,-3.5614 -1.7611,-4.8633 -1.1741,-1.3019 -2.6164,-1.9528 -4.3269,-1.9528 -1.7105,0 -3.1785,0.6509 -4.4041,1.9528 -1.2255,1.3019 -1.8382,2.9294 -1.8382,4.8826 z"
         style="font-variant:normal;font-stretch:normal;fill:#727272;font-family:Montserrat;-inkscape-font-specification:Montserrat"
         id="path3033"
         inkscape:connector-curvature="0" />
      <path
         d="m 2255.6096,-2788.3109 c -2.1184,0 -3.7138,0.6893 -4.7862,2.0679 -1.0725,1.3786 -1.6087,3.2296 -1.6087,5.5528 l 0,8.731 -4.2889,0 0,-20.373 4.2889,0 0,4.0984 c 0.6895,-1.2769 1.6278,-2.3238 2.8147,-3.1407 1.187,-0.8169 2.4442,-1.2382 3.7718,-1.2639 l 0.039,4.3275 c -0.076,0 -0.1531,0 -0.2302,0 z"
         style="font-variant:normal;font-stretch:normal;fill:#727272;font-family:Montserrat;-inkscape-font-specification:Montserrat"
         id="path3035"
         inkscape:connector-curvature="0" />
      <path
         d="m 2279.0643,-2780.2695 -15.9684,0 c 0.1021,1.4811 0.7785,2.6747 2.0294,3.5808 1.2508,0.9061 2.6806,1.3591 4.2895,1.3591 2.5531,0 4.4934,-0.804 5.821,-2.4121 l 2.4506,2.6809 c -2.1955,2.2718 -5.0547,3.4078 -8.5778,3.4078 -2.8593,0 -5.2911,-0.9509 -7.2953,-2.8527 -2.0042,-1.9018 -3.0063,-4.4547 -3.0063,-7.6587 0,-3.2041 1.0212,-5.7507 3.0636,-7.64 2.0424,-1.8893 4.4486,-2.834 7.2187,-2.834 2.7701,0 5.1251,0.8362 7.0651,2.5085 1.9399,1.6723 2.9099,3.9763 2.9099,6.9119 z m -15.9684,-3.3692 11.6795,0 c -1e-4,-1.7109 -0.5361,-3.0258 -1.6081,-3.9447 -1.0721,-0.919 -2.3932,-1.3784 -3.9635,-1.3785 -1.5702,10e-5 -2.9808,0.4788 -4.2316,1.4363 -1.2509,0.9575 -1.8763,2.2532 -1.8763,3.8869 z"
         style="font-variant:normal;font-stretch:normal;fill:#727272;font-family:Montserrat;-inkscape-font-specification:Montserrat"
         id="path3037"
         inkscape:connector-curvature="0" />
      <path
         d="m 2300.2483,-2771.9592 -3.9056,0 0,-2.7195 c -1.6852,2.0171 -3.9446,3.0257 -6.7781,3.0257 -2.1192,0 -3.8745,-0.5999 -5.266,-1.7998 -1.3914,-1.1998 -2.0872,-2.8018 -2.0872,-4.806 0,-2.0042 0.7406,-3.5042 2.2216,-4.4999 1.4811,-0.9957 3.4853,-1.4935 6.0127,-1.4935 l 5.5523,0 0,-0.7655 c -1e-4,-2.7058 -1.5064,-4.0587 -4.5192,-4.0587 -1.8885,0 -3.8542,0.6891 -5.897,2.0674 l -1.9142,-2.6809 c 2.4759,-1.9657 5.2842,-2.9485 8.4247,-2.9485 2.3996,0 4.3589,0.6063 5.8777,1.819 1.5189,1.2127 2.2783,3.1213 2.2783,5.7258 z m -4.2889,-7.5822 0,-1.7238 -4.8253,0 c -3.0884,10e-5 -4.6326,0.9704 -4.6326,2.9111 0,0.9957 0.383,1.7552 1.1488,2.2783 0.7659,0.5232 1.8317,0.7848 3.1974,0.7848 1.3658,0 2.5592,-0.383 3.5802,-1.1488 1.021,-0.7659 1.5315,-1.7997 1.5315,-3.1016 z"
         style="font-variant:normal;font-stretch:normal;fill:#727272;font-family:Montserrat;-inkscape-font-specification:Montserrat"
         id="path3039"
         inkscape:connector-curvature="0" />
      <path
         d="m 2310.5453,-2782.9877 0,11.0285 -4.289,0 0,-20.373 4.289,0 0,3.7151 c 0.6131,-1.2512 1.5387,-2.2342 2.7767,-2.9491 1.2379,-0.7148 2.5718,-1.0722 4.0014,-1.0722 3.2169,0 5.3995,1.3276 6.5479,3.9827 2.0171,-2.6551 4.532,-3.9827 7.5448,-3.9827 2.2975,0 4.1547,0.7022 5.5715,2.1065 1.4168,1.4043 2.1252,3.4341 2.1252,6.0892 l 0,12.4835 -4.2889,0 0,-11.1816 c 0,-3.7529 -1.5575,-5.6294 -4.6723,-5.6294 -1.4546,0 -2.7245,0.4659 -3.8097,1.3977 -1.0854,0.9318 -1.6533,2.2913 -1.7039,4.0786 l 0,11.3347 -4.289,0 0,-11.1816 c 0,-1.9407 -0.3447,-3.3642 -1.0342,-4.2703 -0.6895,-0.906 -1.7746,-1.3591 -3.2553,-1.3591 -1.4807,0 -2.7699,0.4914 -3.8676,1.4742 -1.0978,0.9829 -1.6466,2.419 -1.6466,4.3083 z"
         style="font-variant:normal;font-stretch:normal;fill:#727272;font-family:Montserrat;-inkscape-font-specification:Montserrat"
         id="path3041"
         inkscape:connector-curvature="0" />
      <path
         d="m 2359.5875,-2778.0479 c 0,1.94 -0.702,3.4908 -2.1059,4.6524 -1.404,1.1616 -3.2037,1.7425 -5.3992,1.7425 -1.481,0 -3.0194,-0.2681 -4.615,-0.8041 -1.5955,-0.536 -3.0061,-1.289 -4.2316,-2.259 l 2.0685,-3.3318 c 2.3739,1.7873 4.6714,2.6809 6.8927,2.6809 0.9699,0 1.7358,-0.2234 2.2975,-0.6702 0.5617,-0.4468 0.8426,-1.015 0.8426,-1.7045 0,-1.0214 -1.3529,-1.9403 -4.0587,-2.7568 -0.2049,-0.077 -0.3584,-0.1282 -0.4604,-0.1531 -4.2376,-1.1492 -6.3563,-3.0642 -6.3563,-5.7451 0,-1.8885 0.7339,-3.4009 2.2017,-4.5372 1.4678,-1.1363 3.3762,-1.7045 5.7252,-1.7045 2.349,0 4.5702,0.6895 6.6636,2.0685 l -1.6092,3.1775 c -1.6595,-1.0977 -3.4592,-1.6466 -5.3991,-1.6466 -1.0214,0 -1.8512,0.1853 -2.4893,0.5557 -0.638,0.3705 -0.9571,0.9258 -0.9571,1.6659 0,0.6638 0.3319,1.1488 0.9957,1.455 0.4597,0.2298 1.1044,0.4468 1.9341,0.6509 0.8297,0.2041 1.5637,0.4085 2.2017,0.613 0.6381,0.2045 1.2571,0.4343 1.857,0.6895 0.5999,0.2551 1.2446,0.6125 1.9341,1.0722 1.3782,0.9193 2.0674,2.349 2.0674,4.2889 z"
         style="font-variant:normal;font-stretch:normal;fill:#727272;font-family:Montserrat;-inkscape-font-specification:Montserrat"
         id="path3043"
         inkscape:connector-curvature="0" />
      <path
         d="m 2383.9538,-2771.653 c -2.8336,0 -5.2716,-0.9638 -7.314,-2.8913 -2.0424,-1.9275 -3.0636,-4.4484 -3.0636,-7.5629 0,-3.1144 1.066,-5.6482 3.198,-7.6014 2.132,-1.9532 4.7297,-2.9298 7.7931,-2.9298 3.0634,0 5.6547,1.0596 7.7738,3.1787 l -2.5278,3.1016 c -1.7615,-1.5317 -3.5359,-2.2976 -5.3231,-2.2976 -1.7873,0 -3.3383,0.5937 -4.653,1.781 -1.3147,1.1874 -1.9721,2.7191 -1.9721,4.5952 0,1.876 0.6511,3.4652 1.9534,4.7675 1.3023,1.3022 2.9043,1.9533 4.8061,1.9533 1.9017,0 3.6952,-0.8679 5.3804,-2.6037 l 2.5266,2.7568 c -2.476,2.5017 -5.3353,3.7526 -8.5778,3.7526 z"
         style="font-variant:normal;font-stretch:normal;fill:#727272;font-family:Montserrat;-inkscape-font-specification:Montserrat"
         id="path3045"
         inkscape:connector-curvature="0" />
      <path
         d="m 2401.7476,-2777.3397 c 1.213,1.238 2.7513,1.857 4.6149,1.857 1.8636,0 3.4017,-0.619 4.6144,-1.857 1.2127,-1.238 1.819,-2.8398 1.819,-4.8054 0,-1.9657 -0.6063,-3.5677 -1.819,-4.8061 -1.2127,-1.2384 -2.7508,-1.8575 -4.6144,-1.8576 -1.8636,10e-5 -3.4017,0.6192 -4.6144,1.8576 -1.2126,1.2384 -1.819,2.8404 -1.819,4.8061 0,1.9656 0.6062,3.5674 1.8185,4.8054 z m 12.2742,2.6423 c -2.042,2.0296 -4.5949,3.0444 -7.6587,3.0444 -3.0638,0 -5.6169,-1.0148 -7.6593,-3.0444 -2.0424,-2.0295 -3.0636,-4.5123 -3.0636,-7.4483 0,-2.936 1.0212,-5.4188 3.0636,-7.4484 2.0424,-2.0295 4.5955,-3.0443 7.6593,-3.0443 3.0638,0 5.6167,1.0148 7.6587,3.0443 2.042,2.0296 3.063,4.5124 3.0631,7.4484 -10e-5,2.936 -1.0211,5.4188 -3.0631,7.4483 z"
         style="font-variant:normal;font-stretch:normal;fill:#727272;font-family:Montserrat;-inkscape-font-specification:Montserrat"
         id="path3047"
         inkscape:connector-curvature="0" />
      <path
         d="m 2426.2505,-2782.9877 0,11.0285 -4.2889,0 0,-20.373 4.2889,0 0,3.7151 c 0.6132,-1.2512 1.5387,-2.2342 2.7767,-2.9491 1.238,-0.7148 2.5718,-1.0722 4.0015,-1.0722 3.2169,0 5.3995,1.3276 6.5479,3.9827 2.0171,-2.6551 4.532,-3.9827 7.5448,-3.9827 2.2975,0 4.1547,0.7022 5.5715,2.1065 1.4167,1.4043 2.1251,3.4341 2.1252,6.0892 l 0,12.4835 -4.289,0 0,-11.1816 c 0,-3.7529 -1.5574,-5.6294 -4.6722,-5.6294 -1.4546,0 -2.7245,0.4659 -3.8098,1.3977 -1.0853,0.9318 -1.6533,2.2913 -1.7039,4.0786 l 0,11.3347 -4.2889,0 0,-11.1816 c 0,-1.9407 -0.3448,-3.3642 -1.0343,-4.2703 -0.6895,-0.906 -1.7746,-1.3591 -3.2552,-1.3591 -1.4807,0 -2.7699,0.4914 -3.8676,1.4742 -1.0978,0.9829 -1.6467,2.419 -1.6467,4.3083 z"
         style="font-variant:normal;font-stretch:normal;fill:#727272;font-family:Montserrat;-inkscape-font-specification:Montserrat"
         id="path3049"
         inkscape:connector-curvature="0" />
      <path
         d="m 2479.7348,-2780.2695 -15.9684,0 c 0.1021,1.4811 0.7785,2.6747 2.0294,3.5808 1.2508,0.9061 2.6806,1.3591 4.2895,1.3591 2.5531,0 4.4934,-0.804 5.821,-2.4121 l 2.4507,2.6809 c -2.1956,2.2718 -5.0548,3.4078 -8.5779,3.4078 -2.8593,0 -5.2911,-0.9509 -7.2953,-2.8527 -2.0042,-1.9018 -3.0063,-4.4547 -3.0063,-7.6587 0,-3.2041 1.0212,-5.7507 3.0636,-7.64 2.0424,-1.8893 4.4486,-2.834 7.2187,-2.834 2.7701,0 5.1251,0.8362 7.0651,2.5085 1.9399,1.6723 2.9099,3.9763 2.9099,6.9119 z m -15.9684,-3.3692 11.6795,0 c -1e-4,-1.7109 -0.5361,-3.0258 -1.6081,-3.9447 -1.0721,-0.919 -2.3932,-1.3784 -3.9635,-1.3785 -1.5702,10e-5 -2.9808,0.4788 -4.2316,1.4363 -1.2509,0.9575 -1.8763,2.2532 -1.8763,3.8869 z"
         style="font-variant:normal;font-stretch:normal;fill:#727272;font-family:Montserrat;-inkscape-font-specification:Montserrat"
         id="path3051"
         inkscape:connector-curvature="0" />
      <path
         d="m 2500.1697,-2788.8847 0,10.339 c 0,0.97 0.2554,1.7422 0.7661,2.3168 0.5106,0.5746 1.2255,0.8619 2.1444,0.8619 0.919,0 1.7999,-0.4468 2.6429,-1.3404 l 1.7612,3.0244 c -1.506,1.3533 -3.1718,2.03 -4.9972,2.03 -1.8254,0 -3.3828,-0.6319 -4.6722,-1.8956 -1.2894,-1.2637 -1.9341,-2.9676 -1.9341,-5.1116 l 0,-10.2245 -2.5652,0 0,-3.4475 2.5652,0 0,-6.3949 4.2889,0 0,6.3949 5.3618,0 0,3.4475 z"
         style="font-variant:normal;font-stretch:normal;fill:#727272;font-family:Montserrat;-inkscape-font-specification:Montserrat"
         id="path3053"
         inkscape:connector-curvature="0" />
      <path
         d="m 2521.5746,-2788.3109 c -2.1184,0 -3.7138,0.6893 -4.7862,2.0679 -1.0724,1.3786 -1.6086,3.2296 -1.6086,5.5528 l 0,8.731 -4.2889,0 0,-20.373 4.2889,0 0,4.0984 c 0.6895,-1.2769 1.6277,-2.3238 2.8147,-3.1407 1.1869,-0.8169 2.4442,-1.2382 3.7718,-1.2639 l 0.039,4.3275 c -0.076,0 -0.1531,0 -0.2302,0 z"
         style="font-variant:normal;font-stretch:normal;fill:#727272;font-family:Montserrat;-inkscape-font-specification:Montserrat"
         id="path3055"
         inkscape:connector-curvature="0" />
      <path
         d="m 2540.3197,-2781.3026 0,-11.0296 4.2889,0 0,20.373 -4.2889,0 0,-3.714 c -0.6895,1.2505 -1.6406,2.2331 -2.8533,2.9479 -1.2126,0.7148 -2.5209,1.0723 -3.9248,1.0723 -2.2976,0 -4.1548,-0.702 -5.5716,-2.1059 -1.4168,-1.404 -2.1252,-3.4335 -2.1251,-6.0887 l 0,-12.4846 4.2889,0 0,11.1827 c 0,3.753 1.557,5.6294 4.6711,5.6294 1.481,0 2.7704,-0.4916 3.8682,-1.4748 1.0977,-0.9832 1.6466,-2.4191 1.6466,-4.3077 z"
         style="font-variant:normal;font-stretch:normal;fill:#727272;font-family:Montserrat;-inkscape-font-specification:Montserrat"
         id="path3057"
         inkscape:connector-curvature="0" />
      <path
         d="m 2569.7859,-2780.2695 -15.9683,0 c 0.102,1.4811 0.7785,2.6747 2.0293,3.5808 1.2508,0.9061 2.6807,1.3591 4.2895,1.3591 2.5531,0 4.4934,-0.804 5.821,-2.4121 l 2.4507,2.6809 c -2.1955,2.2718 -5.0548,3.4078 -8.5779,3.4078 -2.8593,0 -5.291,-0.9509 -7.2952,-2.8527 -2.0043,-1.9018 -3.0064,-4.4547 -3.0064,-7.6587 0,-3.2041 1.0212,-5.7507 3.0636,-7.64 2.0424,-1.8893 4.4487,-2.834 7.2188,-2.834 2.77,0 5.125,0.8362 7.065,2.5085 1.9399,1.6723 2.9099,3.9763 2.9099,6.9119 z m -15.9683,-3.3692 11.6794,0 c 0,-1.7109 -0.536,-3.0258 -1.6081,-3.9447 -1.072,-0.919 -2.3932,-1.3784 -3.9634,-1.3785 -1.5703,10e-5 -2.9809,0.4788 -4.2317,1.4363 -1.2508,0.9575 -1.8762,2.2532 -1.8762,3.8869 z"
         style="font-variant:normal;font-stretch:normal;fill:#727272;font-family:Montserrat;-inkscape-font-specification:Montserrat"
         id="path3059"
         inkscape:connector-curvature="0" />
    </g>
  </g>
</svg>
